<svg width="89" height="79" viewBox="0 0 89 79" fill="none" xmlns="http://www.w3.org/2000/svg">
<path d="M40.1163 78.24C34.3563 78.24 29.0763 77.34 24.2763 75.54C19.5163 73.78 15.3763 71.22 11.8563 67.86C8.37628 64.5 5.67628 60.46 3.75628 55.74C1.87628 51.02 0.936279 45.72 0.936279 39.84C0.936279 34.32 1.79628 29.42 3.51628 25.14C5.23628 20.86 7.59628 17.16 10.5963 14.04C13.5963 10.92 16.9963 8.36 20.7963 6.36C24.6363 4.36 28.6763 2.88 32.9163 1.92C37.1563 0.919998 41.3563 0.419998 45.5163 0.419998C51.6363 0.419998 57.2763 1.32 62.4363 3.12C67.5963 4.92 72.0963 7.5 75.9363 10.86C79.7763 14.18 82.7563 18.18 84.8763 22.86C86.9963 27.5 88.0563 32.7 88.0563 38.46C88.0563 44.82 86.8563 50.48 84.4563 55.44C82.0563 60.36 78.6763 64.52 74.3163 67.92C69.9563 71.32 64.8563 73.88 59.0163 75.6C53.2163 77.36 46.9163 78.24 40.1163 78.24ZM42.9363 62.52C49.9363 62.52 55.5363 61.4 59.7363 59.16C63.9363 56.92 66.9763 53.94 68.8563 50.22C70.7363 46.5 71.6763 42.42 71.6763 37.98C71.6763 33.9 70.9963 30.26 69.6363 27.06C68.3163 23.86 66.4563 21.16 64.0563 18.96C61.6563 16.76 58.8763 15.1 55.7163 13.98C52.5563 12.82 49.1563 12.24 45.5163 12.24C41.9563 12.24 38.5563 12.78 35.3163 13.86C32.0763 14.94 29.1963 16.48 26.6763 18.48C24.1563 20.48 22.1563 22.9 20.6763 25.74C19.2363 28.58 18.5163 31.76 18.5163 35.28C18.5163 39.48 19.1163 43.26 20.3163 46.62C21.5563 49.94 23.2563 52.8 25.4163 55.2C27.6163 57.56 30.1963 59.38 33.1563 60.66C36.1563 61.9 39.4163 62.52 42.9363 62.52Z" fill="currentColor"/>
</svg>
