<svg width="76" height="75" viewBox="0 0 76 75" fill="none" xmlns="http://www.w3.org/2000/svg">
<path d="M7.82079 74.56C6.38079 74.56 5.12079 74.3 4.04079 73.78C2.96079 73.26 2.10079 72.52 1.46079 71.56C0.860791 70.56 0.560791 69.38 0.560791 68.02C0.560791 66.62 0.800791 65.4 1.28079 64.36C1.80079 63.28 2.50079 62.26 3.38079 61.3C4.10079 60.5 5.20079 59.32 6.68079 57.76C8.16079 56.16 9.82079 54.42 11.6608 52.54C13.5408 50.62 15.4008 48.74 17.2408 46.9C19.1208 45.02 20.8008 43.4 22.2808 42.04C24.2008 40.56 25.7008 39.28 26.7808 38.2C27.9008 37.08 28.4608 36.2 28.4608 35.56C28.4608 34.92 28.1608 34.18 27.5608 33.34C26.9608 32.5 25.7808 31.48 24.0208 30.28C22.7408 29.28 21.2608 28.1 19.5808 26.74C17.9008 25.34 16.1808 23.92 14.4208 22.48C12.6608 21.04 11.0008 19.68 9.44079 18.4C7.88079 17.08 6.54079 16 5.42079 15.16C4.34079 14.36 3.48079 13.4 2.84079 12.28C2.24079 11.12 1.94079 9.88001 1.94079 8.56001C1.94079 6.84 2.30079 5.46 3.02079 4.42001C3.78079 3.38 4.72079 2.64 5.84079 2.2C6.96079 1.72 8.08079 1.48 9.20079 1.48C10.8808 1.48 12.3608 1.8 13.6408 2.44001C14.9208 3.04001 16.2008 3.96001 17.4808 5.20001C18.9608 6.52001 20.6008 8.12 22.4008 10C24.2008 11.84 26.0408 13.82 27.9208 15.94C29.8008 18.06 31.6208 20.2 33.3808 22.36C34.6208 24 35.6608 25.28 36.5008 26.2C37.3808 27.08 38.1808 27.52 38.9008 27.52C39.5008 27.52 40.1008 27.24 40.7008 26.68C41.3408 26.12 42.0408 25.36 42.8008 24.4C43.6808 23.36 44.6808 22.08 45.8008 20.56C46.9608 19 48.1608 17.36 49.4008 15.64C50.6808 13.92 51.9008 12.26 53.0608 10.66C54.2608 9.02 55.3208 7.58 56.2408 6.34C57.7208 4.38 59.1808 2.98 60.6208 2.14C62.0608 1.3 63.5808 0.880005 65.1808 0.880005C67.5808 0.880005 69.2608 1.44 70.2208 2.56C71.1808 3.68 71.6608 5.08 71.6608 6.76C71.6608 7.84 71.3808 9.04 70.8208 10.36C70.2608 11.64 69.3608 13.02 68.1208 14.5C66.9608 16.06 65.5408 17.84 63.8608 19.84C62.2208 21.8 60.5208 23.74 58.7608 25.66C57.0008 27.54 55.3408 29.2 53.7808 30.64C52.1008 32 50.8808 33.08 50.1208 33.88C49.3608 34.68 48.9808 35.3 48.9808 35.74C48.9808 36.22 49.2608 36.76 49.8208 37.36C50.4208 37.92 51.2408 38.64 52.2808 39.52C55.8808 42.64 59.0408 45.62 61.7608 48.46C64.4808 51.26 66.8408 53.88 68.8408 56.32C70.8408 58.76 72.5408 61 73.9408 63.04C74.5408 63.8 74.9608 64.62 75.2008 65.5C75.4408 66.38 75.5608 67.18 75.5608 67.9C75.5608 69.06 75.2008 70.1 74.4808 71.02C73.7608 71.9 72.8408 72.6 71.7208 73.12C70.6408 73.64 69.5008 73.9 68.3008 73.9C66.7808 73.9 65.4608 73.64 64.3408 73.12C63.2608 72.6 62.2608 71.86 61.3408 70.9C60.3408 69.78 59.1208 68.28 57.6808 66.4C56.2408 64.48 54.7208 62.48 53.1208 60.4C51.5608 58.28 50.0608 56.28 48.6208 54.4C47.2208 52.52 46.0208 51.02 45.0208 49.9C43.7008 48.22 42.5808 47 41.6608 46.24C40.7808 45.48 40.0008 45.1 39.3208 45.1C38.6408 45.1 37.8208 45.54 36.8608 46.42C35.9408 47.3 34.7408 48.7 33.2608 50.62C31.3008 53.02 29.5608 55.14 28.0408 56.98C26.5208 58.78 25.1008 60.46 23.7808 62.02C22.4608 63.58 21.0808 65.18 19.6408 66.82C18.2008 68.42 16.5408 70.24 14.6608 72.28C13.9008 72.92 12.9808 73.46 11.9008 73.9C10.8208 74.34 9.46079 74.56 7.82079 74.56Z" fill="currentColor"/>
</svg>
